<svg xmlns="http://www.w3.org/2000/svg" width="1800" height="1200" viewBox="0 0 1800 1200">
  <defs>
    <linearGradient id="bg" x1="0" y1="0" x2="1" y2="1">
      <stop offset="0" stop-color="#e9fbff"/>
      <stop offset="0.45" stop-color="#dff7ff"/>
      <stop offset="1" stop-color="#f8fdff"/>
    </linearGradient>
    <linearGradient id="line" x1="0" y1="0" x2="1" y2="0">
      <stop offset="0" stop-color="#19d3e6" stop-opacity="0"/>
      <stop offset="0.5" stop-color="#19d3e6" stop-opacity="0.58"/>
      <stop offset="1" stop-color="#3b82f6" stop-opacity="0"/>
    </linearGradient>
    <filter id="blur">
      <feGaussianBlur stdDeviation="34"/>
    </filter>
  </defs>
  <rect width="1800" height="1200" fill="url(#bg)"/>
  <g filter="url(#blur)" opacity="0.62">
    <circle cx="260" cy="190" r="190" fill="#1fd1d1"/>
    <circle cx="1500" cy="190" r="260" fill="#3b82f6"/>
    <circle cx="1280" cy="1020" r="250" fill="#14e6c3"/>
  </g>
  <g opacity="0.22" fill="none" stroke="#1276e2" stroke-width="2">
    <path d="M80 310 C270 210 420 410 610 290 S980 180 1180 310 1510 430 1720 260"/>
    <path d="M130 760 C340 620 540 840 760 710 S1100 600 1320 740 1560 860 1740 720"/>
    <path d="M220 520 H460 M340 400 V640"/>
    <path d="M1370 460 H1610 M1490 340 V580"/>
  </g>
  <g opacity="0.18">
    <rect x="220" y="820" width="260" height="126" rx="36" fill="#ffffff" stroke="#1276e2" stroke-width="3"/>
    <rect x="1320" y="740" width="300" height="142" rx="40" fill="#ffffff" stroke="#1fd1d1" stroke-width="3"/>
    <path d="M300 884 H400 M350 834 V934" stroke="#1276e2" stroke-width="18" stroke-linecap="round"/>
    <path d="M1420 812 H1520 M1470 762 V862" stroke="#1fd1d1" stroke-width="18" stroke-linecap="round"/>
  </g>
  <g opacity="0.16" stroke="url(#line)" stroke-width="3">
    <path d="M0 1020 H1800"/>
    <path d="M0 1048 H1800"/>
    <path d="M0 1076 H1800"/>
  </g>
</svg>
